<svg xmlns="http://www.w3.org/2000/svg" xmlns:xlink="http://www.w3.org/1999/xlink" width="555.068" height="700.319" viewBox="-181.251 -226.296 555.068 700.319" overflow="visible" enable-background="new -181.251 -226.296 555.068 700.319"><defs><radialGradient id="e" cx="11.161" cy="188.839" r="110.207" fx="-70.272" fy="221.45" gradientUnits="userSpaceOnUse"><stop offset=".615" stop-color="#409640"/><stop offset=".911" stop-color="#135823"/></radialGradient><radialGradient id="d" cx="11.161" cy="188.839" r="110.207" fx="-70.272" fy="221.45" gradientUnits="userSpaceOnUse"><stop offset=".615" stop-color="#706d6a"/><stop offset=".911" stop-color="#989898"/></radialGradient><radialGradient gradientUnits="userSpaceOnUse" fy="221.45" fx="-70.272" r="110.207" cy="188.839" cx="11.161" id="c"><stop offset=".615" stop-color="#75511a"/><stop offset=".911" stop-color="#57401e"/></radialGradient><radialGradient gradientUnits="userSpaceOnUse" r="87.06" cy="218.448" cx="19.737" id="b"><stop offset="0" stop-color="#debc85"/><stop offset=".615" stop-color="#75511a"/><stop offset=".911" stop-color="#a67d59"/></radialGradient><radialGradient xlink:href="#b" id="E" gradientUnits="userSpaceOnUse" cx="19.737" cy="218.448" r="87.06"/><radialGradient xlink:href="#d" id="ae" gradientUnits="userSpaceOnUse" gradientTransform="translate(-.566 6.753)" cx="11.161" cy="188.839" fx="-70.272" fy="221.449" r="110.207"/><radialGradient xlink:href="#c" id="W" gradientUnits="userSpaceOnUse" gradientTransform="translate(.09 -.492)" cx="11.161" cy="188.839" fx="-70.272" fy="221.45" r="110.207"/><radialGradient xlink:href="#f" id="Y" cx="-57.596" cy="-47.291" fx="-57.596" fy="-47.291" r="3.005" gradientTransform="matrix(7.91338 3.70103 -1.63958 3.50568 414.643 549.161)" gradientUnits="userSpaceOnUse"/><radialGradient xlink:href="#f" id="Z" gradientUnits="userSpaceOnUse" gradientTransform="matrix(.1724 3.06223 -7.79138 .43864 -350.424 367.29)" cx="-57.596" cy="-47.291" fx="-57.596" fy="-47.291" r="3.005"/><radialGradient xlink:href="#f" id="aa" gradientUnits="userSpaceOnUse" gradientTransform="matrix(2.11765 -4.2353 1.68363 .84181 216.384 -17.605)" cx="-57.596" cy="-47.291" fx="-57.596" fy="-47.291" r="3.005"/><radialGradient xlink:href="#f" id="ab" gradientUnits="userSpaceOnUse" gradientTransform="matrix(7.91338 3.70103 -1.63958 3.50568 378.217 559.36)" cx="-57.596" cy="-47.291" fx="-57.596" fy="-47.291" r="3.005"/><radialGradient xlink:href="#f" id="ac" gradientUnits="userSpaceOnUse" gradientTransform="matrix(7.91338 3.70103 -1.63958 3.50568 366.247 552.706)" cx="-57.596" cy="-47.291" fx="-57.596" fy="-47.291" r="3.005"/><radialGradient xlink:href="#f" id="ad" gradientUnits="userSpaceOnUse" gradientTransform="matrix(7.91338 3.70103 -1.63958 3.50568 360.168 558.86)" cx="-57.596" cy="-47.291" fx="-57.596" fy="-47.291" r="3.005"/><radialGradient xlink:href="#f" id="af" gradientUnits="userSpaceOnUse" gradientTransform="matrix(7.91338 3.70103 -1.63958 3.50568 351.918 565.27)" cx="-57.596" cy="-47.291" fx="-57.596" fy="-47.291" r="3.005"/><linearGradient xlink:href="#a" id="o" x1="181.78" y1="373.433" x2="373.818" y2="373.433" gradientUnits="userSpaceOnUse"/><linearGradient xlink:href="#c" id="Q" x1="-20.384" y1="224.061" x2="-19.677" y2="178.099" gradientUnits="userSpaceOnUse"/><linearGradient xlink:href="#e" id="X" x1="-46.336" y1="175.654" x2="66.763" y2="175.654" gradientUnits="userSpaceOnUse" gradientTransform="translate(1.025 .702)"/><filter id="l"><feGaussianBlur stdDeviation="6.63"/></filter></defs><linearGradient id="h" gradientUnits="userSpaceOnUse" x1="124.925" y1="-101.606" x2="209.925" y2="-101.606"><stop offset="0" stop-color="#fff"/><stop offset="1"/></linearGradient><linearGradient id="i" gradientUnits="userSpaceOnUse" x1="45.925" y1="-98.781" x2="-7.075" y2="-98.781"><stop offset="0" stop-color="#fff"/><stop offset="1"/></linearGradient><radialGradient id="j" cx="121.406" cy="-59.28" r="32.626" fx="99.482" fy="-35.118" gradientUnits="userSpaceOnUse"><stop offset=".698" stop-color="#fff"/><stop offset="1" stop-color="#a8dde0"/></radialGradient><radialGradient id="k" cx="39.008" cy="-56.579" r="28.577" fx="62.429" fy="-40.205" gradientUnits="userSpaceOnUse"><stop offset=".698" stop-color="#fff"/><stop offset="1" stop-color="#a8dde0"/></radialGradient><radialGradient id="a" cx="220.757" cy="447.474" r="207.641" gradientUnits="userSpaceOnUse" fx="220.757" fy="447.474"><stop offset="0" stop-color="#fd0"/><stop offset=".58" stop-color="#ffeb55"/><stop offset="1" stop-color="#fc0"/></radialGradient><radialGradient id="r" cx="154.925" cy="191.619" r="210" gradientUnits="userSpaceOnUse"><stop offset="0" stop-color="#888a85"/><stop offset=".692"/></radialGradient><linearGradient id="s" gradientUnits="userSpaceOnUse" x1="242.925" y1="186.944" x2="271.925" y2="186.944"><stop offset="0" stop-color="#fff"/><stop offset="1" stop-color="#fff" stop-opacity=".076"/></linearGradient><linearGradient id="t" gradientUnits="userSpaceOnUse" x1="228.374" y1="261.994" x2="302.374" y2="261.994"><stop offset="0" stop-color="#fff"/><stop offset="1"/></linearGradient><radialGradient id="u" cx="-30.075" cy="211.619" r="83" gradientUnits="userSpaceOnUse"><stop offset="0" stop-color="#888a85"/><stop offset=".692"/></radialGradient><linearGradient id="v" gradientUnits="userSpaceOnUse" x1="97.226" y1="-133.778" x2="97.226" y2="-223.773"><stop offset="0" stop-color="#63513e"/><stop offset=".379" stop-color="#917049"/><stop offset=".615" stop-color="#b3925d"/><stop offset="1" stop-color="#776d61"/></linearGradient><linearGradient id="f" gradientUnits="userSpaceOnUse" x1="9.375" y1="-185.032" x2="182.075" y2="-185.032"><stop offset="0" stop-color="#007b00"/><stop offset=".278" stop-color="#00a200"/><stop offset=".291" stop-color="#08aa04"/><stop offset=".361" stop-color="#30bc17"/><stop offset=".43" stop-color="#50c225"/><stop offset=".496" stop-color="#66c230"/><stop offset=".559" stop-color="#73be36"/><stop offset=".615" stop-color="#78c238"/><stop offset="1" stop-color="#007100"/></linearGradient><linearGradient id="w" gradientUnits="userSpaceOnUse" x1="96.932" y1="-163.311" x2="89.433" y2="-209.808"><stop offset="0" stop-color="#004d00"/><stop offset="1" stop-color="#004d00" stop-opacity="0"/></linearGradient><linearGradient id="x" gradientUnits="userSpaceOnUse" x1="-13.266" y1="78.442" x2="148.749" y2="78.442"><stop offset="0" stop-color="#820503"/><stop offset=".189" stop-color="#cf1a14"/><stop offset=".473" stop-color="#9e0300"/><stop offset=".692" stop-color="#d33632"/></linearGradient><linearGradient id="y" gradientUnits="userSpaceOnUse" x1="38.32" y1="112.314" x2="51.166" y2="112.314"><stop offset=".059" stop-color="#e00b05"/><stop offset="1" stop-color="#ba1801"/></linearGradient><linearGradient id="z" gradientUnits="userSpaceOnUse" x1="97.187" y1="126.2" x2="120.562" y2="126.2"><stop offset=".059" stop-color="#e21607"/><stop offset="1" stop-color="#b70505"/></linearGradient><radialGradient id="A" cx="40.12" cy="-49.881" r="15.041" fx="51.495" fy="-40.381" gradientTransform="matrix(1.1429 0 0 1 -3.929 0)" gradientUnits="userSpaceOnUse"><stop offset=".503" stop-color="#555"/><stop offset="1"/></radialGradient><radialGradient id="B" cx="118.142" cy="-51.141" r="15.041" fx="108.082" fy="-39.959" gradientTransform="matrix(1.381 0 0 1.1622 -44.727 8.555)" gradientUnits="userSpaceOnUse"><stop offset=".379" stop-color="#555"/><stop offset="1"/></radialGradient><radialGradient id="C" cx="175.925" cy="3.619" r="91.924" gradientUnits="userSpaceOnUse"><stop offset=".337" stop-color="#e00000"/><stop offset=".822" stop-color="#ad0509"/></radialGradient><radialGradient id="D" cx="216.51" cy="92.711" r="102.879" gradientUnits="userSpaceOnUse"><stop offset="0" stop-color="#cb1f0d"/><stop offset=".793" stop-color="#aa0703"/><stop offset="1" stop-color="#b71207"/></radialGradient><radialGradient id="F" cx="-4.266" cy="426.472" r="215.124" gradientUnits="userSpaceOnUse" fx="-4.266" fy="426.472"><stop offset="0" stop-color="#fd0"/><stop offset=".413" stop-color="#ffeb55"/><stop offset="1" stop-color="#fc0"/></radialGradient><linearGradient id="I" gradientUnits="userSpaceOnUse" x1="1.933" y1="469.236" x2="1.933" y2="382.424"><stop offset=".296" stop-color="#e3ad00"/><stop offset="1" stop-color="#fc0"/></linearGradient><radialGradient id="J" cx="100.925" cy="-40.381" r="93.63" gradientUnits="userSpaceOnUse"><stop offset=".189" stop-color="#ffea00"/><stop offset=".58" stop-color="#ff0"/><stop offset="1" stop-color="#fc0"/></radialGradient><linearGradient id="K" gradientUnits="userSpaceOnUse" x1="72.925" y1="-1.606" x2="141.925" y2="-1.606"><stop offset=".296" stop-color="#e3ad00"/><stop offset="1" stop-color="#ffeb55"/></linearGradient><linearGradient id="L" gradientUnits="userSpaceOnUse" x1="7.925" y1="7.812" x2="105.925" y2="7.812"><stop offset=".296" stop-color="#e3ad00"/><stop offset="1" stop-color="#fc0"/></linearGradient><linearGradient id="M" gradientUnits="userSpaceOnUse" x1="106.556" y1="-51.59" x2="141.054" y2="-86.088" gradientTransform="matrix(1.0247 .3354 -.2746 1.0947 -23.444 -37.825)"><stop offset="0" stop-color="#fff"/><stop offset="1" stop-color="#fff" stop-opacity="0"/></linearGradient><linearGradient id="N" gradientUnits="userSpaceOnUse" x1="24.363" y1="-54.857" x2="58.863" y2="-89.357" gradientTransform="matrix(.7488 .734 -.6754 .9381 -35.422 -31.296)"><stop offset="0" stop-color="#fff"/><stop offset="1" stop-color="#fff" stop-opacity="0"/></linearGradient><linearGradient id="O" gradientUnits="userSpaceOnUse" x1="115.924" y1="197.503" x2="88.925" y2="197.503" gradientTransform="rotate(90 108.997 137.453)"><stop offset=".059" stop-color="#e33207"/><stop offset=".657" stop-color="#840100"/></linearGradient><linearGradient id="P" gradientUnits="userSpaceOnUse" x1="106.376" y1="62.619" x2="106.376" y2="96.619"><stop offset="0" stop-color="#a4001a"/><stop offset=".207" stop-color="#cf1005"/><stop offset=".609" stop-color="#931005"/><stop offset=".882" stop-color="#d61605"/></linearGradient><linearGradient id="R" gradientUnits="userSpaceOnUse" x1="90.132" y1="145.826" x2="102.632" y2="133.326"><stop offset=".059" stop-color="#da0901"/><stop offset="1" stop-color="#ab0903"/></linearGradient><linearGradient id="S" gradientUnits="userSpaceOnUse" x1="128.925" y1="137.503" x2="101.925" y2="137.503"><stop offset=".059" stop-color="#fa051a"/><stop offset="1" stop-color="#c60901"/></linearGradient><linearGradient id="T" gradientUnits="userSpaceOnUse" x1="67.504" y1="109.133" x2="77.599" y2="99.037"><stop offset=".059" stop-color="#e00901"/><stop offset="1" stop-color="#99100d"/></linearGradient><linearGradient id="U" gradientUnits="userSpaceOnUse" x1="71.503" y1="105.133" x2="81.599" y2="95.037" gradientTransform="rotate(90 77.22 99.416)" xlink:href="#g"><stop offset=".059" stop-color="#eb0700"/><stop offset="1" stop-color="#950100"/></linearGradient><linearGradient id="g" gradientUnits="userSpaceOnUse" x1="80.504" y1="102.134" x2="90.6" y2="92.038" gradientTransform="rotate(90 77.22 99.416)"><stop offset=".059" stop-color="#d80905"/><stop offset="1" stop-color="#8f0901"/></linearGradient><linearGradient id="V" gradientUnits="userSpaceOnUse" x1="104.314" y1="-122.548" x2="107.906" y2="-165.661"><stop offset=".479" stop-color="#75511a"/><stop offset="1" stop-color="#75511a" stop-opacity=".024"/></linearGradient><path d="M5.375 368.444c2.399 2.7 5.399 46.851 5.6 48.15.601 5 12.5 32.2 12.5 32.2 29.5-9.5 70.5-13.5 122.901-12l44 3.899 2.5-120.5-91.25 63.25-96.251-14.999zM96.275-152.207l-94.5 10.5c-.2.7-.3 21.4-.4 22.101-.2 4.7-.7 9.5-1.399 14.2.199 0 .399-.101.699-.101l-.699.101c-1.601 39.8.6 79.5 6.399 119.1v9.2c7.217 6.059 8.2-.301 15 7.8 0 .1 0 .1.101.1-2.7-5.8-1.7-10.5 2.899-14.1l-10-13 135.201 5.6.8 5.4 13.3 32 13.25-.408 32.667-18s-2.667-26-5.217-41.192v-.4l-2.199-33.7-.801-8.2-7-64.999c-4.6-2.9-9.399-25.501-14.399-28.001l-83.702-4.001z"/><path d="M122.777-109.906c9-.801 16.7 2 23 8.399 6.4 6.4 10.4 10.7 12.3 12.8-.899-9.399-6.2-16.899-15.899-22.3-9.801-5.5-21.801-4.5-36.101 2.9 2.2-.4 7.799-.9 16.7-1.799z" fill="url(#h)"/><path d="M49.274-108.007c-18-5.7-29.699 1.101-35.199 20.4 5.7-13.299 17.5-20.1 35.199-20.4z" fill="url(#i)"/><path d="M103.689-25.926l34.653 1.529c23.019 1.016 10.558-48.412 3.258-57.335-12.341-15.083-38.667-18.838-46.526 2.225-8.365 21.597-2.012 35.473 8.615 53.581" fill="url(#j)"/><path d="M9.675-180.606l-.3-5.3c0 1.5.1 3 .2 4.5.1.3.1.6.1.8z" fill="#776D61"/><path d="M60.375-45.507c2.272-18.478-.866-45.441-24.769-44.979-20.635.399-20.283 31.049-16.719 44.867 5.769 22.366 13.453 21.525 33.171 22.938 8.294.594 7.053-15.724 8.317-22.826" fill="url(#k)"/><path d="M39.575-32.906l-2.801 2.399c.601-.5 1.601-1.299 2.801-2.399z" fill="#AF9E69"/><path d="M-.026-105.406l.7-.101c-.299 0-.499.101-.7.101z" fill="#776D61"/><g filter="url(#l)"><linearGradient y2="-8.381" x2="21.424" y1="154.619" x1="21.424" gradientUnits="userSpaceOnUse" id="m"><stop offset="0" stop-color="#fff"/><stop offset="1" stop-color="#bfd9ff"/></linearGradient><path fill="url(#m)" d="M21.474 30.793c-.152-.254-.115 0 0 0"/><linearGradient y2="-8.381" x2="89.295" y1="154.619" x1="89.295" gradientUnits="userSpaceOnUse" id="n"><stop offset="0" stop-color="#fff"/><stop offset="1" stop-color="#bfd9ff"/></linearGradient><path fill="url(#n)" d="M181.375 87.695c-12.487-23.585-21.45-52.075-31.801-78.401L73.925 28.619 24.374 16.694c-8.843 6.921-.104 29.662-4.346 40.014C14.674 69.77.465 81.784-7.075 95.619s-20 56-25.725 72.013c-21.146 59.148-13.448 85.64 11.841 140.414 10.575 22.904 19.256 48.558 32.592 70.019 17.69 28.468 57.586 27.73 87.372 23.148 30.355-4.67 82.318-27.666 93.756-60.507 16.164-30.087 28.064-44.937 30.614-98.012s-13.45-101.075-42-154.999z"/></g><path d="M-4.526 96.792c.4-1.1.9-2.3 1.5-3.8-.6 1.2-1.1 2.5-1.6 3.7l.1.1z" fill="#8F5444"/><path d="M19.675 389.994c.2-.2-.9-1.601-3.3-4.3l3 5c0-.2.099-.499.3-.7z" fill="#6D685A"/><path fill="#6F6B62" d="M23.474 448.793l.901-2.1-.901 1.202z"/><path d="M314.376 279.693c-15.842 7.336-82.861 11.396-88-3-9.01-6.557-33.655-5.284-34.15 8.05-1.456 39.219-2.785 76.843-7.263 115.917-2.464 21.502-6.757 35.457 2.416 54.799 21.677 45.706 87.105-5.391 107.59-21.292 24.837-19.281 86.646-32.898 78.032-71.661-1.797-8.087-29.219-22.905-36.025-31.346-13.179-16.344-6.306-39.291-22.6-51.467" fill="url(#o)"/><linearGradient y2="283.019" x2="200.925" y1="283.019" x1="186.925" gradientUnits="userSpaceOnUse" id="p"><stop offset=".296" stop-color="#e3ad00"/><stop offset="1" stop-color="#fc0"/></linearGradient><path d="M317.12 282.051a26.544 26.544 0 00-2.744-2.358c-7.415 3.434-26.045 6.149-44.292 6.591 16.667.425 35.563-1.417 47.036-4.233z" fill="url(#p)"/><linearGradient y2="373.432" x2="200.925" y1="373.432" x1="186.925" gradientUnits="userSpaceOnUse" id="q"><stop offset=".296" stop-color="#e3ad00"/><stop offset="1" stop-color="#fc0"/></linearGradient><path d="M197.379 455.458c-9.173-19.342-4.88-33.297-2.416-54.799 4.478-39.074 5.807-76.698 7.263-115.917.252-6.799 6.785-10.455 14.32-11.544-10.642-1.512-23.958 1.777-24.32 11.544-1.456 39.219-2.785 76.843-7.263 115.917-2.464 21.502-6.757 35.457 2.416 54.799 7.333 15.462 19.676 19.837 33.589 18.253-9.721-1.269-18.073-6.622-23.589-18.253z" fill="url(#q)"/><path d="M220.376 26.694c-.9 2.8-1.5 4.8-1.7 6.3-2.3 11.2-6.5 21.601-12.8 31.101-6.3 9.699-14.5 17.5-24.5 23.6 2.8 5.899 5.101 10.8 7 14.8 15.1 31 25.3 63.7 30.7 98.101a920.035 920.035 0 013.3 23.1l1 19c.1 1.2.1 2.3.1 3.5 0 9.2-1.699 18.1-5.1 26.5l8 4c14.6 40.9 31.7 53.6 51.2 38.2 19.5-15.5 30.1-27.2 31.8-35.2l.8-.8c11.9-18.9 11-52.7-2.899-101.4-.7-2.3-1.501-4.5-2.301-6.8-6.699-19.301-15.3-38-25.6-56l-4-6-11-14-6-9-38-59.002z" fill="url(#r)"/><path d="M216.476 122.194c40.172 29.491 49.268 84.215 34.899 129.5 27.488-39.256 13.369-112.398-34.899-129.5" fill="url(#s)"/><path d="M302.374 269.695c-24.601-20.399-49.3-20.5-74-.5 26-13.3 50.6-13.1 74 .5z" fill="url(#t)"/><path d="M-2.936 38.761c-6.931 33.491-41.512 68.534-56.603 99.57-15.278 31.423-58.401 85.136-47.922 121.363 3.108 10.745 19.151 16.717 28.557 24.971 19.635 17.229 38.084 35.854 56.341 54.521 10.896 11.141 22.084 22.189 32.283 33.985 13.383 15.481 50.15-29.22 19.553-42.827-48.347-30.725-68.708-85.883-70.347-101.725-1.639-15.842 4.302-47.404 12.026-68.426C-20.966 138.203-4.16 95.43-4.935 97.36c6.409-17.38 27.416-30.801 24.861-42.741-1.169-5.458-10.102-13.624-21.612-18.108" fill="url(#u)"/><path d="M217.477-158.606c-11.834-2.089-23.589-4.614-35.34-7.144-.248-16.098-2.204-45.454-13.062-48.557-28.987-8.763-57.706-13.108-88.066-11.742-15.382.692-30.629 3.574-45.234 8.442-20.304 6.767-27.33 9.727-26.399 31.7.608 6.269 1.501 11.514 2.477 15.835-16.378 4.027-32.326 9.559-47.476 16.765-4.402 2.111-47.49 22.455-34 29.2 20.12 10.702 47.697 13.224 69.6 18.7 7.23-48.534 94.329-39.188 132.901-34.9 22.212 2.468 42.479 8.109 61.5 20.1 20.455-1.677 43.032-3.179 62.362-10.612 33.824-13.007-28.652-25.135-39.263-27.787z" fill="url(#v)"/><path d="M10.374-169.306c52.2-13.6 109.401-12.3 171.701 4l-.276-10.109c-.15-2.708-.357-5.532-.642-8.374-60.844-27.216-118.105-27.958-171.782-2.118.608 6.269 1.501 11.514 2.477 15.835-.501.123-.998.261-1.499.387l.021.379z" fill="url(#f)"/><path d="M10.928-174.629c.295 1.617.604 3.142.923 4.558-.501.123-.998.261-1.499.387l.021.377c52.086-13.57 109.152-12.302 171.293 3.896a182.906 182.906 0 00-.511-6.379c-60.256-26.953-116.999-27.924-170.227-2.839z" fill="url(#w)" opacity=".5"/><path fill="url(#x)" d="M218.975 15.993c-2.234-10.872-7.42-20.876-14.6-29.3 0 53.307-68.633 71.18-103.926 91.894-6.432 3.775-15.17 12.979-23.141 9.684-11.089-4.583-18.312-22.814-27.186-30.686-9.473-8.404-18.544-17.254-27.751-25.95-6.672-6.302-12.549-14.724-20.157-4.634-11.988 15.9 2.407 13.114 10.66 23.492C23.72 64.955 40.138 73.371 50.167 88.56c3.023 4.578 13.179 10.694 7.729 15.774-5.671 5.286-17.035.423-17.937 7.715l-5.185 41.944c21.985-8.184 44.448-18.186 43.399-46.7 2.609 12.759 7.455 66.22 28.934 62.733 14.145-2.296 21.292-17.366 23.467-29.934 3.006-16.293-20.399-30.541-31.301-37.6 25.1-.894 55.283-.909 78.298-12.596 24.116-12.244 47.624-45.942 41.404-73.903"/><path d="M39.96 112.049l-.776 6.278c4.154-1.659 11.633-.163 15.965-3.993 2.857-2.527 1.643-5.311-.691-8.035-5.912 1.981-13.755-.258-14.498 5.75z" fill="url(#y)"/><path d="M130.525 140.368l.051-.275c1.979-10.732-7.499-20.576-17.316-28.063-4.952.173-9.811.305-14.499.463 9.131 5.611 26.574 15.765 31.764 27.875z" fill="url(#z)"/><path fill="#A67D59" d="M-16.625 171.693l3.5 4.402 3.399-4.402zM-19.625 175.693l6.8 6.202-.401-4z"/><path d="M29.775 157.992v-.1h-.101c.101.001.101.001.101.1z" fill="#FFF"/><path d="M10.774 169.294l-1 1.5-6.399-2.1 6 7c0 .3.1.5.3.8.2.101.5.2.7.2l4.399 1.8 2.101-5.3-6.101-3.9z" fill="#A67D59"/><path d="M29.474 169.193c.301-1.101.301-2.2-.1-3.501l-.1 3.501h.2z"/><path d="M29.375 165.695h-.1l-3.9-3v7l.4 3-2.4 2.1c2.6-.5 4.5-1.899 5.6-4.199.301-.5.4-.9.5-1.4h-.199l.099-3.501z" fill="#A67D59"/><path d="M29.375 165.695h-.1.1z" fill="#8F5444"/><path d="M19.675 182.694v-2h-6.3l1 3c0 .3.1.5.3.801.2.1.5.199.7.199l3 1.101 1-2.101.3-1zM53.575 301.395l-.7 1.9h.1l.6-1.9z" fill="#A67D59"/><ellipse ry="18.5" rx="12" cy="-49.881" cx="41.925" fill="url(#A)"/><ellipse ry="21.5" rx="14.5" cy="-50.881" cx="118.425" fill="url(#B)"/><path fill="#70614E" d="M32.274 192.094l-1.199-2.401-5.7 5 2.5 2.9z"/><path fill="url(#C)" d="M89.925 97.619s69.588-18.407 86.087-19.907 51.043-41.648 39.021-74.071l-19.521 24.574-13.5 31.499-43.497 14.999-48.59 22.906z"/><path fill="#A67D59" d="M7.375 155.694h-1l3.399 4.098 2.001-.399z"/><path d="M209.532-3.306s20.393 49.926-51.607 77.926c-21 9-25 2-68 23 0 0 22-20 55-34s59.215-33.852 64.607-66.926z" fill="url(#D)"/><path fill="#A67D59" d="M-.625 181.694l5 1 3.2-4.7-7.101-2.2 1.101 2.801-4.2 1.1z"/><path d="M50.375 212.693c-.3.801-.7 1.601-1 2.4-2.7 6.6-2.6 13.2 0 19.6-1.9-6.199-1.8-12.399.2-18.699.3-.7.6-1.5.8-2.301v-1z" fill="#9A9897"/><path d="M50.375 212.693v1c1.9-2.5 3.6-4.8 5.2-7.1-1.601 2.1-3.3 4.1-5.2 6.1z" fill="#999897"/><path d="M21.375 184.57c-13.184 3.027-28.546 4.023-41.661 5.908-6.73 1.58-12.848 6.232-20.02 5.35-6.544-.063.973 4.617 2.345 7.473 3.449 4.712 6.4 9.402 8.032 14.318 3.638 11.624-.177 25.515-3.5 36.768 5.043 18.324 16.891 32.292 28.777 46.797 9.546 10.844 19.549 21.976 32.493 28.794 1.803 2.206 10.653.47 5.084 1.49 7.095-8.956 12.266-19.372 17.834-29.368 8.273-13.564 8.876-31.09 3.014-45.325-4.038-9.492-13.935-29.028-13.617-35.097-3.173.14 17.118-32.699 9.27-31.757-8.981-1.159-19.932-9.913-28.051-5.351zm-50.401 50.323c.224-.434.114.67 0 0z" fill="url(#E)"/><path d="M-76.125 258.294c-21.734-4.282-29.312 15.187-39.148 30.319-9.071 13.956-22.796 17.433-37.727 24.118-18.989 8.501-29.329 8.352-23.744 29.378 3.521 13.254 6.607 28.82 2.119 42.284-5.127 15.258-12.943 31.237 2.28 41.055 17.328 11.176 38.105 16.91 58.72 16.245 38.446 7.4 119.272 57.375 140.2-.899l-1.101 3.5c10.826-26.646-.043-44.027-13.841-66.23-10.706-17.229-26.016-31.146-35.259-49.37-10.118-23.274-29.155-58.479-52.499-70.4" fill="url(#F)"/><linearGradient y2="284.455" x2="-122.825" y1="329.46" x1="-122.825" gradientUnits="userSpaceOnUse" id="G"><stop offset=".296" stop-color="#e3ad00"/><stop offset="1" stop-color="#fc0"/></linearGradient><path d="M-150.993 317.732c15.992-6.686 30.692-10.162 40.408-24.118 10.535-15.133 18.651-34.602 41.93-30.319.419.2.833.423 1.25.636-2.831-2.208-5.74-4.113-8.72-5.636-21.734-4.282-29.312 15.187-39.148 30.319-9.071 13.956-22.796 17.433-37.727 24.118-16.966 7.596-27.018 8.298-24.984 23.356.837-10.348 11.078-11.705 26.991-18.356z" fill="url(#G)"/><linearGradient y2="284.455" x2="-176.507" y1="329.46" x1="-176.507" gradientUnits="userSpaceOnUse" id="H"><stop offset=".296" stop-color="#e3ad00"/><stop offset="1" stop-color="#fc0"/></linearGradient><path d="M-174.155 389.394c2.901-8.126 2.838-17.016 1.511-25.702.588 7.06.209 14.131-1.981 20.702-3.193 9.502-7.426 19.283-6.491 27.682.715-7.161 4.201-15.012 6.961-22.682z" fill="url(#H)"/><path d="M11.634 378.064c-10.706-17.229-26.016-31.146-35.259-49.37-10.119-23.273 14.553 34.142 25.259 51.37 13.798 22.203 24.667 39.584 13.841 66.23l1.101-3.5c-5.148 14.336-13.926 22.11-24.802 25.59 15.458-1.5 28.154-9.079 34.802-27.59l-1.101 3.5c10.826-26.646-.044-44.027-13.841-66.23z" fill="url(#I)"/><path d="M153.474-12.906c-3.469-12.734-35.83-20.455-46.765-25.581-14.859-6.965-30.125-16.65-46.335-7.02-8.374 3.941-16.852 9.925-24.101 15.4.522-.091-23.773 14.859-23.773 28.038 0 15.843 34.201 40.537 45.519 44.909 22.334 8.628 37.419.038 55.355-12.146 16.785-13.315 45.854-13.686 40.1-43.6" fill="url(#J)"/><path d="M153.474-12.906c-3.469-12.734-35.83-20.455-46.765-25.581-11.459-5.371-23.161-12.352-35.351-10.851 9.695 1.128 19.102 6.516 28.352 10.852 10.935 5.125 43.296 12.846 46.765 25.581 5.754 29.914-23.314 30.285-40.099 43.6-11.763 7.99-22.3 14.435-34.459 15.491 15.267 1.293 27.5-6.009 41.458-15.491 16.784-13.316 45.853-13.687 40.099-43.601z" fill="url(#K)"/><path d="M12.632-.375c1.574 11.094 12.836 20.097 20.851 26.774C43.751 34.954 55.356 42 68.275 45.694c-7.55-4.835-14.728-10.594-19.9-18 16.534 1.416 33.912-1.823 49.542-7.078 15.367-5.166 32.875-13.681 40.458-28.922-14.315 13.219-32.643 18.919-51.578 20.593-15.053 1.331-32.426 1.49-46.382-5.145C34.83 4.488 29.769.165 28.495-6.152c-1.713-8.496 3.114-17.195 7.754-23.917-4.204 3.548-8.9 6.391-12.954 10.182C18.129-15.055 11.548-8.094 12.632-.375" fill="url(#L)"/><path d="M104.502-66.298c.961 4.337 7.972 6.474 15.661 4.771 7.69-1.703 13.146-6.599 12.185-10.937-.961-4.337-7.973-6.473-15.662-4.77-7.69 1.703-13.146 6.599-12.184 10.936z" fill="url(#M)"/><path d="M26.93-70.436c-.911 4.542 4.277 9.412 11.588 10.878 7.311 1.465 13.975-1.027 14.885-5.57.911-4.542-4.277-9.412-11.587-10.878-7.311-1.466-13.975 1.027-14.886 5.57z" fill="url(#N)"/><path d="M70.7 110.178s-7.716 30.573-22.738 28.213c-15.022-2.359-31.11-11.71-12.135-14.387 18.976-2.678 21.06 6.304 34.873-13.826z" fill="url(#O)"/><path d="M17.707 41.635c9.704 8.695 19.264 17.546 29.249 25.95 9.353 7.872 16.966 26.103 28.653 30.686 8.401 3.295 17.611-5.909 24.39-9.684C137.196 67.873 209.532 50 209.532-3.306a71.194 71.194 0 015.5 6.947c-2.675-6.125-6.295-11.829-10.657-16.947 0 53.307-68.633 71.18-103.926 91.894-6.432 3.775-10.962 18.919-18.933 15.624-11.089-4.583-22.52-28.754-31.394-36.626-9.473-8.404-18.544-17.254-27.751-25.95-6.672-6.302-12.549-14.724-20.157-4.634-2.836 3.762-4.183 6.47-4.496 8.562 7.419-7.756 13.329.103 19.989 6.071z" fill="url(#P)"/><path d="M63.774 180.993l-.5-3c-9.199 5.5-19.3 8.8-30.199 9.7l1.3-11-11 6 6.3 1.2-5.3.8 1.3 2.699c-1.1.5-2.1.9-3.2 1.2-3.7 1.2-7.3.7-10.6-1.5l.5-1.1-4.7-2-1.3.7-.6 3.3-3.7-1.601 3.3-1.699c-.2 0-.5-.2-.7-.501-.2-.399-.3-.899-.3-1.499l-5-1c0 1.699-.8 3.1-2.6 4.3-1.7 1.1-3.9 1.699-6.4 1.699l-3.7 3.101-2.3-3.101h4c-1.101-1.1-2.5-1.899-4-2.199-.4-.1-.7-.2-1-.2-.3-.1-.601-.1-.9-.1-1.2.2-2.3.399-3.399.5l-.7-5c-.5.5-1.101 1-1.7 1.399-1.2.9-2.6 1.4-4 1.601-.4.1-.8.1-1.1.2-1.9-.301-3.9-.601-5.7-.9l5.1 3.2-11.8.1-2.3-4.2-3.5 3.601-4.8-10.4c-1.5 3.5-2.2 5.5-2.101 6.2 1.4 5.1 4 9.5 7.9 13.2v.8c.899.5 1.3.8 1.1 1v.1l.9-.1 4-.8c7.2 1.399 14.4 2.2 21.899 2.399 12.101.4 24.2-.8 36.101-3.399.399.5.9.899 1.3 1.3.4.5.9.8 1.4 1.1.8.7 1.8 1.301 2.8 1.7 1 .6 2 1 3.1 1.3.601.2 1.101.4 1.7.5.5 0 1.101.101 1.7.101l4.8-5.2c.6.1 1.3.2 2 .3h1.7c1.7 0 3.3-.3 4.8-.8 1-.4 2-.9 2.9-1.5 1-.5 1.899-1.1 2.8-1.8l14.399-10.701zm-32.699 8.701l1.199 2.399-4.399 5.5-2.5-2.899 5.7-5zm-17.2 1.299c.5.3 1 .5 1.5.7-5.3 3.6-10.3 3-14.9-1.5 4.6-1.2 8.999-.999 13.4.8z" fill="url(#Q)"/><path d="M88.925 115.119s4.5 55.5 21 42.5-11.5-10-21-42.5z" fill="url(#R)"/><path d="M94.722 115.752s30.573 7.715 28.213 22.738c-2.359 15.022-11.71 31.11-14.387 12.135-2.678-18.976 6.304-21.06-13.826-34.873z" fill="url(#S)"/><ellipse ry="9.204" rx="8.296" cy="103.415" cx="73.221" fill="url(#T)"/><ellipse ry="8.296" rx="9.204" cy="99.415" cx="77.221" fill="url(#U)"/><ellipse ry="8.296" rx="9.204" cy="108.415" cx="80.221" fill="url(#g)"/><path opacity=".5" fill="url(#V)" d="M256.739-130.819c.201-.077.382-.154.576-.231-26.96-10.847-77.583-32.155-121.39-35.33-83.461-6.049-182.203 20.209-184 45-.338 4.669 42.943 11.189 47.09 15.746.317.078.645.15.96.229 7.23-48.534 94.329-39.188 132.901-34.9 22.212 2.468 42.479 8.109 61.5 20.1 20.455-1.679 43.032-3.18 62.363-10.614z"/><path d="M33.241 157.265L6.464 155.2l-36 5c-11.7 3.5-18.9 8.3-21.8 14.6l4.8 10.4 5.8.6 18.8 7.4-11.1-3.2c1.8.3 11-9.3 11.5-9.8l-1.245 6.06c1.1-.101 4.144-1.36 5.344-1.56.3 0 .6 0 .9.1.3 0-1.168 3.459-.768 3.558 1.5.3 1.131 2.16 2.232 3.26l8.187 1.591c2.5 0 3.11-5.373 4.808-6.472 1.801-1.2 1.54-3.838 1.54-5.538l-2-2 4.2-1.1-1.1-2.8 7.1 2.2-3.2 4.7c0 .6.1 1.1.3 1.5l-4.19 2.376 4.583 2.484 6.808-1.96c3.3 2.2 7.075 4.82 10.776 3.62 1.101-.3 1.925-2.82 3.024-3.32l11.642 4.543 12.058-.243c-13.5 19.8-31.9 27.8-55 24 .899.7 19.502 11.914 33.802 9.713l8.798-2.314c-.9 5.6-7.5 9.4-19.8 11.2 13.7 8.2 22.8 10.6 27.1 7.1 13.6 23.2 16.1 42.9 7.3 59.2-8.8 16.3-14.4 25.8-16.9 28.5-2.6 2.6-7.25 2.846-4.25 1.247.1.2 5.15.752 5.25.953.7-.2 2.6-1.1 5.5-2.899 3-1.7 6.9-5.8 11.9-12.1 5-6.4 8.2-14.2 9.7-23.6 1.4-9.3 1.3-16.602-.3-21.7l-13.1-36.3c-2.601-6.4-1.068-16.96 1-22 1.9-2 3.6-4 5.2-6.102 3.699-4.5 6.899-9.1 9.5-13.699.7-1.1 1.3-2.1 1.899-3.1 1.4-2.3 3.4-5 5.7-7.9 1.3-1.7 1.4-3.7.4-6.1-.301-1.3-2.7-3.5-7.2-6.5-2.601-1.3-13.022-5.636-15.723-6.636l-16.998-4.897zM-13.035 175.6l-3.5-4.399h6.899l-3.4 4.4zm.3 5.801l-6.8-6.2 6.399 2.2.4 4zm22.599-11.1l1-1.5 6.1 3.9-2.1 5.3-4.4-1.8c-.2 0-.5-.102-.7-.2-.2-.3-.3-.5-.3-.8l-6-7 6.4 2.1zm19.6-5.1c.4 1.3.4 2.4.1 3.5-.1.5-.198.9-.5 1.4-1.1 2.3-3 3.7-5.6 4.2l2.4-2.1-.4-3v-7l3.9 3h.1zm-9.7 15v2l-.3 1-1 2.1-3-1.1c-.2 0-.5-.1-.7-.2-.2-.3-.3-.5-.3-.8l-1-3h6.3z" fill="url(#W)"/><path d="M23.389 164.15l-5.001-5.35-5.313.016-7.646-.415-19.797 2.04-15.629 3.905c-11.7 3.5-14.182 5.386-17.082 11.686l4.05 7.102 6.318 4.25 18.11 3.93c3.467.184 9.07.368 10.15.55l10.328.035c2.5 0 10.359-.405 12.058-1.504l11.495-.72 12.545-1.815c11.05-2.55 6.644-1.618 10.345-2.818 8.363-.775 15.192-4.573 11.926-2.629-.594.354 4.72-.844 10.017-6.1-2.287-.972-3.717-3.574-5.994-5.206-2.904-2.08-6.633-3.247-9.289-4.625-2.646-1.372-5.922-3.173-9.742-4.097-2.587-.626-5.424-1.079-8.483-1.856l-13.366 3.62z" fill="url(#X)"/><path d="M35.255 164.021l4.155 3.006.176 2.74-.671 2.227-1.45 2.015-1.799 1.257-2.267.688 2.248-2.149-.48-3.155-.054-2.742.142-3.887z" fill="url(#Y)" fill-rule="evenodd"/><path d="M6.61 165.755l.973-1.237 6.275 3.977-2.174 5.233-5.036-1.901-.656-1.21-5.534-6.632 6.153 1.77z" fill="url(#Z)" fill-rule="evenodd"/><path d="M13.646 180.332h6.54v2.12l-1.113 2.935-1.273-.194-3.058-.798-1.096-4.063z" fill="url(#aa)" fill-rule="evenodd"/><path d="M-1.17 174.22l7.336 2.21-3.536 4.685.39 1.52-4.19 2.634-1.71-.865.65-1.787-.228-2.679-1.894-1.917 4.1-.975-.918-2.826z" fill="url(#ab)" fill-rule="evenodd"/><path d="M-13.671 167.743l7.16-.089-3.006 4.685-4.154-4.596z" fill="url(#ac)" fill-rule="evenodd"/><path d="M-19.308 173.632l6.453 2.121.353 4.508-3.942-3.695-2.864-2.934z" fill="url(#ad)" fill-rule="evenodd"/><path d="M39.658 57.046c-1 6.9-2.2 9.4-4.85 20.15l-5 20.5c.7 1-7.925 49.8-8.625 48.5-1.25 7.55-1.842 7.21-2.8 10.05-.704 2.089-.775 2.575-2.95 5.2-1.25 3.25 2.774 5.9 2.774 6.4l9.473 1.52 5.9-4.125 6.225-49.8 11-50 2-9c-.4-.3-.8-.7-1.2-1-5.1-.35-5.8-.4-11.05-1-.096.905-.196 1.555-.397 2.355l-.5.25zm-10.949 115.4h.1-.1z" fill="url(#ae)"/><path d="M-26.674 183.4l5.745-5.568-1.06 6.098 5.161-1.573 1.29.16-1.356 3.289 1.268 1.218 1.255 2.233-2.757-.064-3.233-.075-4.12-.588-3.784-.71-2.794-.798 4.385-3.622z" fill="url(#af)" fill-rule="evenodd"/><path d="M35.925 104.542v-.8c-.2-3.6-1.1-6.9-2.9-9.9-.5-1-1.199-1.899-1.899-2.899l-10 57c.3 0 .5.1.7.3.2.199.3.5.3.699.7 1.301 1 2.7 1.2 4.2.199 2.5-.4 4.7-1.601 6.801-.199.3-.399.699-.6 1l2.899 4.899 9.101-48.899c1.9-7.101 2.8-11 2.8-11.601v-.8z" fill="#e8e8e8" fill-opacity=".759"/></svg>